<svg width="179" height="169" viewBox="0 0 179 169" fill="none" xmlns="http://www.w3.org/2000/svg">
<path d="M158.232 162.594L49.2346 55.8064C44.7919 51.4538 38.2898 49.9478 32.386 51.904C25.5888 54.1562 21 60.5107 21 67.6713L21 158.003C21 163.25 16.7467 167.503 11.5 167.503C6.25329 167.503 2 163.25 2 158.003L2 25C2 12.2975 12.2975 2.00001 25 2.00001L168.168 2.00009C172.981 2.00009 176.822 6.01521 176.608 10.8238C176.408 15.34 172.688 18.8983 168.168 18.8983L70.8968 18.8982C64.6849 18.8982 59.3154 23.2335 58.0064 29.3059C57.0667 33.6646 58.3934 38.203 61.5329 41.3693L169.996 150.759C173.385 154.176 173.187 159.745 169.565 162.914C166.283 165.784 161.346 165.644 158.232 162.594Z" fill="white" stroke="black" stroke-width="3"/>
</svg>
