<svg width="109" height="105" viewBox="0 0 109 105" fill="none" xmlns="http://www.w3.org/2000/svg">
<g clip-path="url(#clip0_49_95)">
<circle cx="52.7525" cy="52.7525" r="53" fill="white"/>
<circle cx="52.7525" cy="52.7525" r="53" fill="url(#paint0_diamond_49_95)"/>
<path d="M50.0012 28.6465C43.5159 26.9088 36.6384 27.3595 30.4354 29.9289C24.2324 32.4983 19.0505 37.0427 15.6935 42.8572C12.3364 48.6718 10.9918 55.4316 11.8682 62.0883C12.7445 68.7449 15.7929 74.9264 20.5405 79.674C25.2881 84.4216 31.4695 87.4699 38.1262 88.3463C44.7829 89.2227 51.5427 87.8781 57.3572 84.521C63.1718 81.164 67.7162 75.9821 70.2856 69.7791C72.8549 63.5761 73.3057 56.6986 71.568 50.2133L42.1073 58.1072L50.0012 28.6465Z" fill="white"/>
<path d="M50.0012 28.6465C43.5159 26.9088 36.6384 27.3595 30.4354 29.9289C24.2324 32.4983 19.0505 37.0427 15.6935 42.8572C12.3364 48.6718 10.9918 55.4316 11.8682 62.0883C12.7445 68.7449 15.7929 74.9264 20.5405 79.674C25.2881 84.4216 31.4695 87.4699 38.1262 88.3463C44.7829 89.2227 51.5427 87.8781 57.3572 84.521C63.1718 81.164 67.7162 75.9821 70.2856 69.7791C72.8549 63.5761 73.3057 56.6986 71.568 50.2133L42.1073 58.1072L50.0012 28.6465Z" fill="url(#paint1_diamond_49_95)"/>
<path d="M68.659 76.475C75.1558 74.7807 80.9119 70.99 85.0347 65.6908C89.1576 60.3916 91.4166 53.8801 91.4615 47.1661C91.5064 40.4522 89.3347 33.9111 85.2831 28.5572C81.2315 23.2033 75.5266 19.3359 69.053 17.5549C62.5795 15.7738 55.6991 16.1786 49.4791 18.7064C43.259 21.2342 38.0469 25.7439 34.651 31.5358C31.2551 37.3278 29.8653 44.0785 30.6972 50.7409C31.529 57.4032 34.5359 63.605 39.2517 68.3842L60.9622 46.9622L68.659 76.475Z" fill="white"/>
<path d="M68.659 76.475C75.1558 74.7807 80.9119 70.99 85.0347 65.6908C89.1576 60.3916 91.4166 53.8801 91.4615 47.1661C91.5064 40.4522 89.3347 33.9111 85.2831 28.5572C81.2315 23.2033 75.5266 19.3359 69.053 17.5549C62.5795 15.7738 55.6991 16.1786 49.4791 18.7064C43.259 21.2342 38.0469 25.7439 34.651 31.5358C31.2551 37.3278 29.8653 44.0785 30.6972 50.7409C31.529 57.4032 34.5359 63.605 39.2517 68.3842L60.9622 46.9622L68.659 76.475Z" fill="url(#paint2_diamond_49_95)"/>
<path d="M31.0129 31.3295C25.2321 38.0606 21.8339 46.511 21.3452 55.3702C20.8566 64.2295 23.3049 73.0024 28.3104 80.3283C33.3159 87.6543 40.5989 93.1239 49.0298 95.8888C57.4607 98.6537 66.5683 98.5594 74.9402 95.6205C83.312 92.6817 90.4802 87.0625 95.333 79.6345C100.186 72.2065 102.452 63.3848 101.78 54.5376C101.108 45.6903 97.5356 37.3121 91.6167 30.7021C85.6978 24.0922 77.7632 19.62 69.0435 17.9792L61.5899 57.5899L31.0129 31.3295Z" fill="white"/>
<path d="M31.0129 31.3295C25.2321 38.0606 21.8339 46.511 21.3452 55.3702C20.8566 64.2295 23.3049 73.0024 28.3104 80.3283C33.3159 87.6543 40.5989 93.1239 49.0298 95.8888C57.4607 98.6537 66.5683 98.5594 74.9402 95.6205C83.312 92.6817 90.4802 87.0625 95.333 79.6345C100.186 72.2065 102.452 63.3848 101.78 54.5376C101.108 45.6903 97.5356 37.3121 91.6167 30.7021C85.6978 24.0922 77.7632 19.62 69.0435 17.9792L61.5899 57.5899L31.0129 31.3295Z" fill="url(#paint3_diamond_49_95)"/>
<path d="M28.2193 9.07129C18.0889 13.5007 9.85223 21.3714 4.96742 31.2903C0.0826132 41.2092 -1.13533 52.5365 1.52918 63.2671C4.19369 73.9977 10.5688 83.4396 19.5261 89.9213C28.4833 96.4031 39.445 99.5067 50.4707 98.6829L46.981 51.981L28.2193 9.07129Z" fill="white"/>
<path d="M28.2193 9.07129C18.0889 13.5007 9.85223 21.3714 4.96742 31.2903C0.0826132 41.2092 -1.13533 52.5365 1.52918 63.2671C4.19369 73.9977 10.5688 83.4396 19.5261 89.9213C28.4833 96.4031 39.445 99.5067 50.4707 98.6829L46.981 51.981L28.2193 9.07129Z" fill="url(#paint4_diamond_49_95)"/>
</g>
<defs>
<radialGradient id="paint0_diamond_49_95" cx="0" cy="0" r="1" gradientUnits="userSpaceOnUse" gradientTransform="translate(78.0412 88.1113) rotate(65.7447) scale(185.518 185.542)">
<stop offset="0.025" stop-color="#3600A9"/>
<stop offset="1" stop-color="#1B0500"/>
</radialGradient>
<radialGradient id="paint1_diamond_49_95" cx="0" cy="0" r="1" gradientUnits="userSpaceOnUse" gradientTransform="translate(65.5285 49.3167) rotate(-9.25529) scale(106.76 106.774)">
<stop offset="0.025" stop-color="#3600A9"/>
<stop offset="1" stop-color="#1B0500"/>
</radialGradient>
<radialGradient id="paint2_diamond_49_95" cx="0" cy="0" r="1" gradientUnits="userSpaceOnUse" gradientTransform="translate(44.9452 66.179) rotate(141.128) scale(106.76 106.774)">
<stop offset="0.025" stop-color="#3600A9"/>
<stop offset="1" stop-color="#1B0500"/>
</radialGradient>
<radialGradient id="paint3_diamond_49_95" cx="0" cy="0" r="1" gradientUnits="userSpaceOnUse" gradientTransform="translate(64.5198 24.6605) rotate(-73.5984) scale(141.084 141.102)">
<stop offset="0.025" stop-color="#3600A9"/>
<stop offset="1" stop-color="#1B0500"/>
</radialGradient>
<radialGradient id="paint4_diamond_49_95" cx="0" cy="0" r="1" gradientUnits="userSpaceOnUse" gradientTransform="translate(37.4263 89.186) rotate(115.72) scale(163.928 163.949)">
<stop offset="0.025" stop-color="#3600A9"/>
<stop offset="1" stop-color="#1B0500"/>
</radialGradient>
<clipPath id="clip0_49_95">
<rect width="109" height="105" fill="white"/>
</clipPath>
</defs>
</svg>
