<svg width="635" height="504" viewBox="0 0 635 504" fill="none" xmlns="http://www.w3.org/2000/svg">
<g clip-path="url(#clip0_3058_336)">
<path d="M17 -42V554" stroke="white" stroke-width="2"/>
<path d="M708 12L-70 11.9999" stroke="white" stroke-width="2"/>
<path d="M50 -42V554" stroke="white" stroke-width="2"/>
<path d="M708 45L-70 44.9999" stroke="white" stroke-width="2"/>
<path d="M80 -42V554" stroke="white" stroke-width="2"/>
<path d="M708 76L-70 75.9999" stroke="white" stroke-width="2"/>
<path d="M113 -42V554" stroke="white" stroke-width="2"/>
<path d="M708 108L-70 108" stroke="white" stroke-width="2"/>
<path d="M144 -42V554" stroke="white" stroke-width="2"/>
<path d="M708 139L-70 139" stroke="white" stroke-width="2"/>
<path d="M177 -42V554" stroke="white" stroke-width="2"/>
<path d="M708 172L-70 172" stroke="white" stroke-width="2"/>
<path d="M207 -42V554" stroke="white" stroke-width="2"/>
<path d="M708 203L-70 203" stroke="white" stroke-width="2"/>
<path d="M240 -42V554" stroke="white" stroke-width="2"/>
<path d="M708 235L-70 235" stroke="white" stroke-width="2"/>
<path d="M271 -42V554" stroke="white" stroke-width="2"/>
<path d="M708 266L-70 266" stroke="white" stroke-width="2"/>
<path d="M304 -42V554" stroke="white" stroke-width="2"/>
<path d="M708 299L-70 299" stroke="white" stroke-width="2"/>
<path d="M334 -42V554" stroke="white" stroke-width="2"/>
<path d="M708 329L-70 329" stroke="white" stroke-width="2"/>
<path d="M367 -42V554" stroke="white" stroke-width="2"/>
<path d="M708 362L-70 362" stroke="white" stroke-width="2"/>
<path d="M398 -42V554" stroke="white" stroke-width="2"/>
<path d="M708 393L-70 393" stroke="white" stroke-width="2"/>
<path d="M431 -42V554" stroke="white" stroke-width="2"/>
<path d="M708 426L-70 426" stroke="white" stroke-width="2"/>
<path d="M461 -42V554" stroke="white" stroke-width="2"/>
<path d="M708 456L-70 456" stroke="white" stroke-width="2"/>
<path d="M494 -42V554" stroke="white" stroke-width="2"/>
<path d="M708 489L-70 489" stroke="white" stroke-width="2"/>
<path d="M525 -42V554" stroke="white" stroke-width="2"/>
<path d="M558 -42V554" stroke="white" stroke-width="2"/>
<path d="M588 -42V554" stroke="white" stroke-width="2"/>
<path d="M621 -42V554" stroke="white" stroke-width="2"/>
</g>
<defs>
<clipPath id="clip0_3058_336">
<rect width="635" height="504" fill="white"/>
</clipPath>
</defs>
</svg>
