<svg width="50" height="30" viewBox="0 0 50 30" fill="none" xmlns="http://www.w3.org/2000/svg">
<path d="M49.6158 2.63447V26.7838C49.6158 28.2388 48.4364 29.4182 46.9814 29.4182H2.63448C1.1795 29.4182 2.2384e-06 28.2388 2.1112e-06 26.7838L1.76573e-06 22.8321C1.63853e-06 21.0977 1.1795 19.9182 2.63448 19.9182H9.22065C10.6756 19.9182 11.8551 19.0181 11.8551 17.5631V12.2942C11.8551 10.8392 10.6756 9.65972 9.22065 9.65972L2.63448 9.65973C1.1795 9.65973 5.1105e-07 8.48023 3.8386e-07 7.02526L0 2.63447C-1.272e-07 1.1795 1.1795 4.00413e-06 2.63448 3.87693e-06L46.9814 0C48.4363 -1.27198e-07 49.6158 1.17949 49.6158 2.63447Z" fill="black"/>
</svg>
