<svg width="130" height="30" viewBox="0 0 130 30" fill="none" xmlns="http://www.w3.org/2000/svg">
<path d="M0 26.7838V2.63447C0 1.17949 1.17949 0 2.63447 0H114.96C116.415 0 117.594 1.17949 117.594 2.63447V6.58617C117.594 8.04115 118.774 9.22064 120.229 9.22064H126.815C128.27 9.22064 129.449 10.4001 129.449 11.8551V17.1241C129.449 18.579 128.27 19.7585 126.815 19.7585H120.229C118.774 19.7585 117.594 20.938 117.594 22.393V26.7838C117.594 28.2388 116.415 29.4182 114.96 29.4182H2.63447C1.17949 29.4182 0 28.2387 0 26.7838Z" fill="black"/>
</svg>
