<svg width="63" height="30" viewBox="0 0 63 30" fill="none" xmlns="http://www.w3.org/2000/svg">
<path d="M0.587402 26.7838V2.63447C0.587402 1.17949 1.7669 0 3.22187 0H47.5688C49.0238 0 50.2033 1.17949 50.2033 2.63447V6.58617C50.2033 8.04115 51.3827 9.22064 52.8377 9.22064H59.4239C60.8789 9.22064 62.0584 10.4001 62.0584 11.8551V17.1241C62.0584 18.579 60.8789 19.7585 59.4239 19.7585H52.8377C51.3827 19.7585 50.2033 20.938 50.2033 22.393V26.7838C50.2033 28.2388 49.0238 29.4182 47.5688 29.4182H3.22187C1.76689 29.4182 0.587402 28.2387 0.587402 26.7838Z" fill="black"/>
</svg>
