<svg width="143" height="30" viewBox="0 0 143 30" fill="none" xmlns="http://www.w3.org/2000/svg">
<path d="M142.261 2.63447L142.261 26.7838C142.261 28.2388 141.082 29.4182 139.627 29.4182L2.63434 29.4182C1.17935 29.4182 -0.000137226 28.2387 -0.000137099 26.7838L-0.000136753 22.8321C-0.000136626 21.3771 1.17935 20.1976 2.63434 20.1976L8.34235 20.1976C9.79733 20.1976 10.9768 19.0181 10.9768 17.5631L10.9768 12.2942C10.9768 10.8392 9.79733 9.65971 8.34235 9.65971L2.63434 9.65971C1.17935 9.65971 -0.000135499 8.48022 -0.000135371 7.02524L-0.000134988 2.63446C-0.00013486 1.17948 1.17937 -1.23338e-05 2.63434 -1.22066e-05L139.627 -2.30313e-07C141.082 -1.03115e-07 142.261 1.17949 142.261 2.63447Z" fill="black"/>
</svg>
