<svg width="51" height="30" viewBox="0 0 51 30" fill="none" xmlns="http://www.w3.org/2000/svg">
<path d="M0.790039 26.8054V2.65608C0.790039 1.2011 1.96953 0.0216064 3.42451 0.0216064H47.7714C49.2264 0.0216064 50.4059 1.2011 50.4059 2.65608V6.60778C50.4059 8.06276 49.2264 9.24225 47.7714 9.24225H41.1852C39.7303 9.24225 38.5508 10.4217 38.5508 11.8767V17.1457C38.5508 18.6006 39.7303 19.7801 41.1852 19.7801H47.7714C49.2264 19.7801 50.4059 20.9596 50.4059 22.4146V26.8054C50.4059 28.2604 49.2264 29.4398 47.7714 29.4398H3.42451C1.96953 29.4398 0.790039 28.2604 0.790039 26.8054Z" fill="black"/>
</svg>
