<svg width="92" height="30" viewBox="0 0 92 30" fill="none" xmlns="http://www.w3.org/2000/svg">
<path d="M0.344727 26.7838V2.63447C0.344727 1.17949 1.52422 0 2.9792 0H77.1834C78.6384 0 79.8179 1.17949 79.8179 2.63447V6.58617C79.8179 8.04115 80.9974 9.22064 82.4524 9.22064H89.0385C90.4935 9.22064 91.673 10.4001 91.673 11.8551V17.1241C91.673 18.579 90.4935 19.7585 89.0385 19.7585H82.4524C80.9974 19.7585 79.8179 20.938 79.8179 22.393V26.7838C79.8179 28.2388 78.6384 29.4182 77.1834 29.4182H2.9792C1.52422 29.4182 0.344727 28.2387 0.344727 26.7838Z" fill="black"/>
</svg>
