<svg width="80" height="30" viewBox="0 0 80 30" fill="none" xmlns="http://www.w3.org/2000/svg">
<path d="M79.4732 2.63448V26.7837C79.4732 28.2387 78.2938 29.4182 76.8388 29.4182H2.63453C1.17955 29.4182 6.0908e-05 28.2387 6.10352e-05 26.7837L6.13816e-05 22.832C4.72697e-07 21 1.17949 19.8205 2.63447 19.8205H8.34248C9.79746 19.8205 10.9769 18.641 10.977 17.5631V12.2942C10.977 10.8392 9.79752 9.65972 8.34255 9.65972H2.63453C1.17955 9.65972 6.26365e-05 8.48023 6.27637e-05 7.02526L6.31474e-05 2.63447C6.32746e-05 1.17949 1.17956 -1.272e-07 2.63453 0L76.8388 6.4871e-06C78.2938 6.6143e-06 79.4732 1.1795 79.4732 2.63448Z" fill="black"/>
</svg>
