<svg width="102" height="30" viewBox="0 0 102 30" fill="none" xmlns="http://www.w3.org/2000/svg">
<path d="M101.743 2.68226L101.743 26.8316C101.743 28.2865 100.564 29.466 99.1087 29.466L13.4884 29.466C12.0335 29.466 10.854 28.2865 10.854 26.8316L10.854 22.8799C10.854 21.4249 9.67447 20.2454 8.21949 20.2454L2.95055 20.2454C1.49558 20.2454 0.316087 19.0659 0.316087 17.6109L0.316087 12.342C0.316087 10.887 1.49558 9.70751 2.95056 9.70751L8.21949 9.70751C9.67447 9.70751 10.854 8.52801 10.854 7.07304L10.854 2.68225C10.854 1.22727 12.0335 0.0477827 13.4884 0.0477828L99.1087 0.0477903C100.564 0.0477904 101.743 1.22728 101.743 2.68226Z" fill="black"/>
</svg>
