<svg width="1379" height="1263" viewBox="0 0 1379 1263" fill="none" xmlns="http://www.w3.org/2000/svg">
<rect x="862.468" y="331.718" width="222.725" height="199.031" fill="white"/>
<rect x="958.824" y="459.666" width="222.725" height="199.031" fill="white"/>
<rect x="1123.1" y="658.698" width="222.725" height="199.031" fill="white"/>
<rect x="1156.27" y="857.729" width="222.725" height="199.031" fill="white"/>
<rect x="1104.15" y="1001.47" width="222.725" height="199.031" fill="white"/>
<rect x="609.73" y="857.729" width="164.28" height="143.745" fill="white"/>
<rect x="609.73" y="317.501" width="150.063" height="413.858" fill="white"/>
<rect x="203.771" y="1063.08" width="977.779" height="199.031" fill="white"/>
<rect x="75.821" y="963.563" width="186.394" height="199.031" fill="white"/>
<rect y="840.354" width="186.394" height="199.031" fill="white"/>
<rect x="75.821" y="641.322" width="186.394" height="199.031" fill="white"/>
<rect x="186.394" y="459.666" width="186.394" height="199.031" fill="white"/>
<rect x="336.456" y="331.718" width="186.394" height="199.031" fill="white"/>
<rect x="372.787" y="173.758" width="186.394" height="199.031" fill="white"/>
<rect x="530.749" y="0.000183105" width="301.706" height="199.031" fill="white"/>
<rect x="774.01" y="173.758" width="222.725" height="199.031" fill="white"/>
</svg>
