<svg width="322" height="374" viewBox="0 0 322 374" fill="none" xmlns="http://www.w3.org/2000/svg">
<path d="M0 187C0 160.355 1.60411 135.648 4.81231 112.878C8.02051 90.1088 12.8328 70.4076 19.2492 53.7746C25.6656 36.9801 33.7226 23.8191 43.4201 14.2914C53.1176 4.76381 64.4192 0 77.325 0C89.2099 0 99.9282 4.76381 109.48 14.2914C119.032 23.8191 127.125 36.9801 133.76 53.7746C140.468 70.4076 145.609 90.1088 149.181 112.878C152.754 135.648 154.541 160.355 154.541 187C154.541 213.484 152.754 238.191 149.181 261.122C145.609 283.891 140.468 303.673 133.76 320.468C127.125 337.101 119.032 350.181 109.48 359.709C99.9282 369.236 89.2099 374 77.325 374C64.4192 374 53.1176 369.236 43.4201 359.709C33.7226 350.181 25.6656 337.101 19.2492 320.468C12.8328 303.673 8.02051 283.891 4.81231 261.122C1.60411 238.191 0 213.484 0 187ZM77.325 309.567C84.1788 309.567 90.3036 306.499 95.6992 300.363C101.095 294.226 105.652 285.748 109.371 274.929C113.162 263.948 116.042 251.029 118.011 236.172C119.979 221.154 120.964 204.763 120.964 187C120.964 169.237 119.979 152.927 118.011 138.07C116.042 123.052 113.162 110.133 109.371 99.3135C105.652 88.3325 101.095 79.7737 95.6992 73.6373C90.3036 67.5008 84.1788 64.4326 77.325 64.4326C70.4711 64.4326 64.3463 67.5008 58.9507 73.6373C53.5551 79.7737 48.9615 88.3325 45.17 99.3135C41.4514 110.133 38.5713 123.052 36.5298 138.07C34.5611 152.927 33.5768 169.237 33.5768 187C33.5768 204.763 34.5611 221.154 36.5298 236.172C38.5713 251.029 41.4514 263.948 45.17 274.929C48.9615 285.748 53.5551 294.226 58.9507 300.363C64.3463 306.499 70.4711 309.567 77.325 309.567Z" fill="#FF00FF"/>
<path d="M166.694 8.96242H215.801L244.019 286.071H244.456L272.674 8.96242H322V365.038H291.048V67.3394H290.611L260.096 365.038H227.395L198.083 67.3394H197.646V365.038H166.694V8.96242Z" fill="#FF00FF"/>
</svg>
