<svg width="419" height="374" viewBox="0 0 419 374" fill="none" xmlns="http://www.w3.org/2000/svg">
<path d="M0 8.96244H79.432C86.0422 8.96244 91.8444 10.3351 96.8387 13.0803C101.907 15.8256 106.277 19.5397 109.949 24.2228C113.621 28.9059 116.706 34.3156 119.203 40.4521C121.7 46.5885 123.683 53.0479 125.152 59.8303C126.621 66.4512 127.649 73.2336 128.237 80.1775C128.898 87.1213 129.229 93.7422 129.229 100.04C129.229 109.083 128.861 117.238 128.127 124.505C127.392 131.611 126.217 138.151 124.601 144.126C123.059 149.939 121.003 155.268 118.432 160.113C115.935 164.796 112.923 169.075 109.398 172.951C114.833 177.472 119.203 183.044 122.508 189.665C125.813 196.285 128.347 203.472 130.11 211.223C131.873 218.813 133.048 226.725 133.635 234.961C134.223 243.035 134.517 250.867 134.517 258.457C134.517 275.736 133.084 290.997 130.22 304.238C127.356 317.48 123.316 328.623 118.101 337.666C112.887 346.548 106.534 353.33 99.0421 358.013C91.6241 362.696 83.3614 365.038 74.2541 365.038H0V8.96244ZM32.4999 303.512H74.6947C78.4405 303.512 81.8925 302.543 85.0506 300.605C88.2088 298.667 90.9263 295.76 93.2032 291.885C95.5534 287.848 97.3529 282.842 98.6015 276.867C99.9235 270.73 100.585 263.544 100.585 255.308C100.585 244.973 99.8133 236.737 98.2709 230.601C96.7286 224.303 94.6721 219.459 92.1015 216.067C89.6043 212.676 86.7399 210.496 83.5083 209.527C80.3501 208.397 77.1185 207.832 73.8134 207.832H32.4999V303.512ZM32.4999 149.212H74.2541C77.1919 149.212 80.0196 148.486 82.7371 147.032C85.4546 145.579 87.8416 143.237 89.8981 140.008C92.028 136.617 93.7173 132.337 94.9659 127.17C96.2145 122.002 96.8387 115.785 96.8387 108.518C96.8387 100.928 96.2512 94.7111 95.076 89.8666C93.9743 84.8605 92.432 80.9041 90.4489 77.9974C88.4659 75.0907 86.1523 73.0721 83.5083 71.9417C80.8642 70.8113 78.0733 70.2461 75.1354 70.2461H32.4999V149.212Z" fill="#0000FF"/>
<path d="M183.996 154.541L211.979 154.784C215.137 154.784 218.112 153.815 220.903 151.877C223.767 149.939 226.227 147.032 228.284 143.157C230.414 139.12 232.103 134.194 233.352 128.381C234.6 122.567 235.225 115.785 235.225 108.034C235.225 98.1831 234.343 90.0281 232.58 83.5687C230.818 77.1092 228.541 72.0225 225.75 68.3083C222.959 64.5941 219.838 62.0104 216.386 60.557C212.934 59.1036 209.482 58.3769 206.03 58.3769C201.549 58.3769 197.62 59.4266 194.242 61.5259C190.936 63.4637 188.072 66.0475 185.648 69.2772C183.298 72.5069 181.315 76.1403 179.699 80.1775C178.157 84.0531 176.945 88.0095 176.064 92.0466C175.182 95.9223 174.558 99.6364 174.191 103.189C173.824 106.58 173.64 109.326 173.64 111.425H142.462C142.462 106.419 142.719 100.202 143.233 92.7733C143.821 85.345 144.922 77.513 146.538 69.2772C148.154 61.0415 150.431 52.8057 153.369 44.5699C156.38 36.3342 160.346 28.9059 165.267 22.285C170.188 15.6641 176.174 10.3351 183.225 6.29793C190.349 2.09931 198.832 0 208.674 0C219.03 0 227.917 3.06822 235.335 9.20466C242.826 15.1796 248.959 22.9309 253.733 32.4586C258.507 41.8247 262.032 52.3212 264.309 63.9482C266.586 75.5751 267.724 86.9598 267.724 98.1023C267.724 104.4 267.357 111.021 266.623 117.965C265.962 124.909 264.676 131.691 262.767 138.312C260.931 144.933 258.397 151.07 255.165 156.721C252.007 162.373 247.894 166.976 242.826 170.528V171.497C244.442 172.466 246.315 173.677 248.445 175.131C250.575 176.584 252.741 178.684 254.945 181.429C257.222 184.013 259.425 187.404 261.555 191.602C263.758 195.801 265.705 201.049 267.394 207.347C269.083 213.645 270.442 221.235 271.47 230.117C272.572 238.837 273.123 249.091 273.123 260.88C273.123 276.382 271.617 290.997 268.606 304.723C265.594 318.449 261.188 330.48 255.385 340.815C249.657 350.988 242.532 359.063 234.013 365.038C225.566 371.013 215.871 374 204.928 374C199.346 374 193.801 373.273 188.292 371.82C182.784 370.528 177.533 368.187 172.538 364.795C167.617 361.404 163.027 356.963 158.767 351.473C154.507 345.821 150.798 338.877 147.64 330.641C144.555 322.244 142.132 312.393 140.369 301.089C138.606 289.624 137.725 276.382 137.725 261.364H168.903C168.903 267.339 169.527 273.556 170.776 280.016C172.098 286.313 174.191 292.127 177.055 297.456C179.92 302.623 183.665 306.903 188.292 310.294C192.92 313.685 198.538 315.381 205.148 315.381C211.318 315.381 216.569 313.847 220.903 310.778C225.236 307.549 228.761 303.35 231.479 298.183C234.196 292.854 236.179 286.879 237.428 280.258C238.676 273.475 239.301 266.532 239.301 259.426C239.301 248.284 238.419 239.402 236.657 232.781C234.967 225.999 232.801 220.831 230.157 217.278C227.513 213.726 224.648 211.465 221.564 210.496C218.479 209.366 215.578 208.801 212.86 208.801H183.996V154.541Z" fill="#0000FF"/>
<path d="M385.178 70.2461H337.695L337.805 124.021C337.879 156.479 337.548 185.143 336.814 210.012C336.153 234.719 335.051 256.277 333.509 274.687C332.04 292.934 330.13 308.275 327.78 320.71C325.503 333.144 322.786 343.156 319.627 350.746C316.469 358.174 312.87 363.503 308.831 366.733C304.791 369.963 300.348 371.578 295.5 371.578C291.534 371.578 288.009 371.013 284.924 369.882C281.913 368.913 278.901 367.056 275.89 364.311L275.78 296.245C276.808 297.375 277.873 298.344 278.975 299.152C280.15 299.797 281.288 300.363 282.39 300.847C283.492 301.17 284.483 301.412 285.365 301.574C286.32 301.735 287.054 301.816 287.568 301.816C289.551 301.816 291.387 301.251 293.077 300.12C294.839 298.829 296.382 296.164 297.704 292.127C299.099 288.09 300.311 282.276 301.339 274.687C302.368 267.097 303.212 257.004 303.873 244.408C304.608 231.812 305.122 216.229 305.416 197.658C305.783 179.087 305.966 156.883 305.966 131.045V8.96244H419V365.038H385.178V70.2461Z" fill="#0000FF"/>
</svg>
